<mxfile host="app.diagrams.net" modified="2024-06-27T15:10:02.595Z" agent="Mozilla/5.0 (Macintosh; Intel Mac OS X 10_15_7) AppleWebKit/537.36 (KHTML, like Gecko) Chrome/126.0.0.0 Safari/537.36" etag="oySHA8xcgd7fp-UFtyRc" version="24.6.3" type="github">
  <diagram id="C5RBs43oDa-KdzZeNtuy" name="Page-1">
    <mxGraphModel dx="1272" dy="819" grid="0" gridSize="11" guides="1" tooltips="1" connect="1" arrows="1" fold="1" page="1" pageScale="1" pageWidth="827" pageHeight="1169" math="0" shadow="0">
      <root>
        <mxCell id="WIyWlLk6GJQsqaUBKTNV-0" />
        <mxCell id="WIyWlLk6GJQsqaUBKTNV-1" parent="WIyWlLk6GJQsqaUBKTNV-0" />
        <mxCell id="WIyWlLk6GJQsqaUBKTNV-3" value="Start&amp;nbsp;" style="rounded=1;whiteSpace=wrap;html=1;fontSize=12;glass=0;strokeWidth=5;shadow=0;fillColor=#dae8fc;strokeColor=#6c8ebf;sketch=1;curveFitting=1;jiggle=2;fontStyle=1;horizontal=1;verticalAlign=middle;labelBackgroundColor=none;labelBorderColor=none;textShadow=0;" parent="WIyWlLk6GJQsqaUBKTNV-1" vertex="1">
          <mxGeometry x="160" y="80" width="168" height="40" as="geometry" />
        </mxCell>
        <mxCell id="vJLqhC23IlcQEvtVn0m9-2" value="" style="edgeStyle=orthogonalEdgeStyle;rounded=0;orthogonalLoop=1;jettySize=auto;html=1;fillColor=#dae8fc;strokeColor=#6c8ebf;strokeWidth=5;sketch=1;curveFitting=1;jiggle=2;shadow=0;fontStyle=1;horizontal=1;verticalAlign=middle;labelBackgroundColor=none;labelBorderColor=none;textShadow=0;" edge="1" parent="WIyWlLk6GJQsqaUBKTNV-1" source="WIyWlLk6GJQsqaUBKTNV-7" target="WIyWlLk6GJQsqaUBKTNV-10">
          <mxGeometry relative="1" as="geometry" />
        </mxCell>
        <mxCell id="WIyWlLk6GJQsqaUBKTNV-7" value="Input a Number&amp;nbsp;" style="rounded=1;whiteSpace=wrap;html=1;fontSize=12;glass=0;strokeWidth=5;shadow=0;fillColor=#dae8fc;strokeColor=#6c8ebf;sketch=1;curveFitting=1;jiggle=2;fontStyle=1;horizontal=1;verticalAlign=middle;labelBackgroundColor=none;labelBorderColor=none;textShadow=0;" parent="WIyWlLk6GJQsqaUBKTNV-1" vertex="1">
          <mxGeometry x="160" y="190" width="120" height="40" as="geometry" />
        </mxCell>
        <mxCell id="WIyWlLk6GJQsqaUBKTNV-8" value="No" style="rounded=0;html=1;jettySize=auto;orthogonalLoop=1;fontSize=11;endArrow=block;endFill=0;endSize=8;strokeWidth=5;shadow=0;labelBackgroundColor=none;edgeStyle=orthogonalEdgeStyle;fillColor=#dae8fc;strokeColor=#6c8ebf;sketch=1;curveFitting=1;jiggle=2;fontStyle=1;horizontal=1;verticalAlign=middle;labelBorderColor=none;textShadow=0;" parent="WIyWlLk6GJQsqaUBKTNV-1" source="WIyWlLk6GJQsqaUBKTNV-10" edge="1">
          <mxGeometry x="0.3333" y="20" relative="1" as="geometry">
            <mxPoint as="offset" />
            <mxPoint x="220" y="430" as="targetPoint" />
          </mxGeometry>
        </mxCell>
        <mxCell id="WIyWlLk6GJQsqaUBKTNV-9" value="Yes" style="edgeStyle=orthogonalEdgeStyle;rounded=0;html=1;jettySize=auto;orthogonalLoop=1;fontSize=11;endArrow=block;endFill=0;endSize=8;strokeWidth=5;shadow=0;labelBackgroundColor=none;fillColor=#dae8fc;strokeColor=#6c8ebf;sketch=1;curveFitting=1;jiggle=2;fontStyle=1;horizontal=1;verticalAlign=middle;labelBorderColor=none;textShadow=0;" parent="WIyWlLk6GJQsqaUBKTNV-1" source="WIyWlLk6GJQsqaUBKTNV-10" target="WIyWlLk6GJQsqaUBKTNV-12" edge="1">
          <mxGeometry y="10" relative="1" as="geometry">
            <mxPoint as="offset" />
          </mxGeometry>
        </mxCell>
        <mxCell id="WIyWlLk6GJQsqaUBKTNV-10" value="Is number&amp;nbsp;&lt;div&gt;&amp;lt; 2&lt;/div&gt;" style="rhombus;whiteSpace=wrap;html=1;shadow=0;fontFamily=Helvetica;fontSize=12;align=center;strokeWidth=5;spacing=6;spacingTop=-4;fillColor=#dae8fc;strokeColor=#6c8ebf;sketch=1;curveFitting=1;jiggle=2;fontStyle=1;horizontal=1;verticalAlign=middle;labelBackgroundColor=none;labelBorderColor=none;textShadow=0;" parent="WIyWlLk6GJQsqaUBKTNV-1" vertex="1">
          <mxGeometry x="170" y="290" width="100" height="80" as="geometry" />
        </mxCell>
        <mxCell id="vJLqhC23IlcQEvtVn0m9-20" value="" style="edgeStyle=orthogonalEdgeStyle;rounded=0;orthogonalLoop=1;jettySize=auto;html=1;fillColor=#dae8fc;strokeColor=#6c8ebf;strokeWidth=5;sketch=1;curveFitting=1;jiggle=2;shadow=0;fontStyle=1;horizontal=1;verticalAlign=middle;labelBackgroundColor=none;labelBorderColor=none;textShadow=0;" edge="1" parent="WIyWlLk6GJQsqaUBKTNV-1" source="WIyWlLk6GJQsqaUBKTNV-12" target="vJLqhC23IlcQEvtVn0m9-14">
          <mxGeometry relative="1" as="geometry" />
        </mxCell>
        <mxCell id="WIyWlLk6GJQsqaUBKTNV-12" value="not a prime number" style="rounded=1;whiteSpace=wrap;html=1;fontSize=12;glass=0;strokeWidth=5;shadow=0;fillColor=#dae8fc;strokeColor=#6c8ebf;sketch=1;curveFitting=1;jiggle=2;fontStyle=1;horizontal=1;verticalAlign=middle;labelBackgroundColor=none;labelBorderColor=none;textShadow=0;" parent="WIyWlLk6GJQsqaUBKTNV-1" vertex="1">
          <mxGeometry x="354" y="310" width="120" height="40" as="geometry" />
        </mxCell>
        <mxCell id="vJLqhC23IlcQEvtVn0m9-1" value="" style="endArrow=classic;html=1;rounded=0;exitX=0.5;exitY=1;exitDx=0;exitDy=0;entryX=0.5;entryY=0;entryDx=0;entryDy=0;fillColor=#dae8fc;strokeColor=#6c8ebf;strokeWidth=5;sketch=1;curveFitting=1;jiggle=2;shadow=0;fontStyle=1;horizontal=1;verticalAlign=middle;labelBackgroundColor=none;labelBorderColor=none;textShadow=0;" edge="1" parent="WIyWlLk6GJQsqaUBKTNV-1" source="WIyWlLk6GJQsqaUBKTNV-3" target="WIyWlLk6GJQsqaUBKTNV-7">
          <mxGeometry width="50" height="50" relative="1" as="geometry">
            <mxPoint x="380" y="320" as="sourcePoint" />
            <mxPoint x="430" y="270" as="targetPoint" />
          </mxGeometry>
        </mxCell>
        <mxCell id="vJLqhC23IlcQEvtVn0m9-18" value="" style="edgeStyle=orthogonalEdgeStyle;rounded=0;orthogonalLoop=1;jettySize=auto;html=1;fillColor=#dae8fc;strokeColor=#6c8ebf;strokeWidth=5;sketch=1;curveFitting=1;jiggle=2;shadow=0;fontStyle=1;horizontal=1;verticalAlign=middle;labelBackgroundColor=none;labelBorderColor=none;textShadow=0;" edge="1" parent="WIyWlLk6GJQsqaUBKTNV-1" source="vJLqhC23IlcQEvtVn0m9-12" target="vJLqhC23IlcQEvtVn0m9-15">
          <mxGeometry relative="1" as="geometry" />
        </mxCell>
        <mxCell id="vJLqhC23IlcQEvtVn0m9-21" value="" style="edgeStyle=orthogonalEdgeStyle;rounded=0;orthogonalLoop=1;jettySize=auto;html=1;fillColor=#dae8fc;strokeColor=#6c8ebf;strokeWidth=5;sketch=1;curveFitting=1;jiggle=2;shadow=0;fontStyle=1;horizontal=1;verticalAlign=middle;labelBackgroundColor=none;labelBorderColor=none;textShadow=0;" edge="1" parent="WIyWlLk6GJQsqaUBKTNV-1" source="vJLqhC23IlcQEvtVn0m9-12" target="vJLqhC23IlcQEvtVn0m9-14">
          <mxGeometry relative="1" as="geometry" />
        </mxCell>
        <mxCell id="vJLqhC23IlcQEvtVn0m9-12" value="&lt;div&gt;&lt;br&gt;&lt;/div&gt;Is this number only&amp;nbsp;&lt;div&gt;divisible&amp;nbsp;&lt;div&gt;by that&amp;nbsp;&lt;/div&gt;&lt;/div&gt;&lt;div&gt;number&lt;/div&gt;" style="rhombus;whiteSpace=wrap;html=1;shadow=0;fontFamily=Helvetica;fontSize=12;align=center;strokeWidth=5;spacing=6;spacingTop=-4;fillColor=#dae8fc;strokeColor=#6c8ebf;sketch=1;curveFitting=1;jiggle=2;fontStyle=1;horizontal=1;verticalAlign=middle;labelBackgroundColor=none;labelBorderColor=none;textShadow=0;" vertex="1" parent="WIyWlLk6GJQsqaUBKTNV-1">
          <mxGeometry x="130" y="430" width="180" height="140" as="geometry" />
        </mxCell>
        <mxCell id="vJLqhC23IlcQEvtVn0m9-19" value="" style="edgeStyle=orthogonalEdgeStyle;rounded=0;orthogonalLoop=1;jettySize=auto;html=1;fillColor=#dae8fc;strokeColor=#6c8ebf;strokeWidth=5;sketch=1;curveFitting=1;jiggle=2;shadow=0;fontStyle=1;horizontal=1;verticalAlign=middle;labelBackgroundColor=none;labelBorderColor=none;textShadow=0;" edge="1" parent="WIyWlLk6GJQsqaUBKTNV-1" source="vJLqhC23IlcQEvtVn0m9-14" target="vJLqhC23IlcQEvtVn0m9-16">
          <mxGeometry relative="1" as="geometry" />
        </mxCell>
        <mxCell id="vJLqhC23IlcQEvtVn0m9-14" value="prime number" style="rounded=1;whiteSpace=wrap;html=1;fontSize=12;glass=0;strokeWidth=5;shadow=0;fillColor=#dae8fc;strokeColor=#6c8ebf;sketch=1;curveFitting=1;jiggle=2;fontStyle=1;horizontal=1;verticalAlign=middle;labelBackgroundColor=none;labelBorderColor=none;textShadow=0;" vertex="1" parent="WIyWlLk6GJQsqaUBKTNV-1">
          <mxGeometry x="354" y="480" width="120" height="40" as="geometry" />
        </mxCell>
        <mxCell id="vJLqhC23IlcQEvtVn0m9-17" value="" style="edgeStyle=orthogonalEdgeStyle;rounded=0;orthogonalLoop=1;jettySize=auto;html=1;fillColor=#dae8fc;strokeColor=#6c8ebf;strokeWidth=5;sketch=1;curveFitting=1;jiggle=2;shadow=0;fontStyle=1;horizontal=1;verticalAlign=middle;labelBackgroundColor=none;labelBorderColor=none;textShadow=0;" edge="1" parent="WIyWlLk6GJQsqaUBKTNV-1" source="vJLqhC23IlcQEvtVn0m9-15" target="vJLqhC23IlcQEvtVn0m9-16">
          <mxGeometry relative="1" as="geometry" />
        </mxCell>
        <mxCell id="vJLqhC23IlcQEvtVn0m9-15" value="not prime" style="rounded=1;whiteSpace=wrap;html=1;fontSize=12;glass=0;strokeWidth=5;shadow=0;fillColor=#dae8fc;strokeColor=#6c8ebf;sketch=1;curveFitting=1;jiggle=2;fontStyle=1;horizontal=1;verticalAlign=middle;labelBackgroundColor=none;labelBorderColor=none;textShadow=0;" vertex="1" parent="WIyWlLk6GJQsqaUBKTNV-1">
          <mxGeometry x="170" y="620" width="120" height="40" as="geometry" />
        </mxCell>
        <mxCell id="vJLqhC23IlcQEvtVn0m9-16" value="End" style="rounded=1;whiteSpace=wrap;html=1;fontSize=12;glass=0;strokeWidth=5;shadow=0;fillColor=#dae8fc;strokeColor=#6c8ebf;sketch=1;curveFitting=1;jiggle=2;fontStyle=1;horizontal=1;verticalAlign=middle;labelBackgroundColor=none;labelBorderColor=none;textShadow=0;" vertex="1" parent="WIyWlLk6GJQsqaUBKTNV-1">
          <mxGeometry x="354" y="620" width="131" height="48" as="geometry" />
        </mxCell>
        <mxCell id="vJLqhC23IlcQEvtVn0m9-25" value="Start&amp;nbsp;" style="rounded=1;whiteSpace=wrap;html=1;fontSize=12;glass=0;strokeWidth=5;shadow=0;fillColor=#dae8fc;strokeColor=#6c8ebf;sketch=1;curveFitting=1;jiggle=2;fontStyle=1;horizontal=1;verticalAlign=middle;labelBackgroundColor=none;labelBorderColor=none;textShadow=0;" vertex="1" parent="WIyWlLk6GJQsqaUBKTNV-1">
          <mxGeometry x="602" y="63" width="168" height="40" as="geometry" />
        </mxCell>
        <mxCell id="vJLqhC23IlcQEvtVn0m9-26" value="" style="edgeStyle=orthogonalEdgeStyle;rounded=0;orthogonalLoop=1;jettySize=auto;html=1;fillColor=#dae8fc;strokeColor=#6c8ebf;strokeWidth=5;sketch=1;curveFitting=1;jiggle=2;shadow=0;fontStyle=1;horizontal=1;verticalAlign=middle;labelBackgroundColor=none;labelBorderColor=none;textShadow=0;" edge="1" parent="WIyWlLk6GJQsqaUBKTNV-1" source="vJLqhC23IlcQEvtVn0m9-27" target="vJLqhC23IlcQEvtVn0m9-30">
          <mxGeometry relative="1" as="geometry" />
        </mxCell>
        <mxCell id="vJLqhC23IlcQEvtVn0m9-27" value="Input Number" style="rounded=1;whiteSpace=wrap;html=1;fontSize=12;glass=0;strokeWidth=5;shadow=0;fillColor=#dae8fc;strokeColor=#6c8ebf;sketch=1;curveFitting=1;jiggle=2;fontStyle=1;horizontal=1;verticalAlign=middle;labelBackgroundColor=none;labelBorderColor=none;textShadow=0;" vertex="1" parent="WIyWlLk6GJQsqaUBKTNV-1">
          <mxGeometry x="626" y="168" width="120" height="40" as="geometry" />
        </mxCell>
        <mxCell id="vJLqhC23IlcQEvtVn0m9-28" value="No" style="rounded=0;html=1;jettySize=auto;orthogonalLoop=1;fontSize=11;endArrow=block;endFill=0;endSize=8;strokeWidth=5;shadow=0;labelBackgroundColor=none;edgeStyle=orthogonalEdgeStyle;fillColor=#dae8fc;strokeColor=#6c8ebf;sketch=1;curveFitting=1;jiggle=2;fontStyle=1;horizontal=1;verticalAlign=middle;labelBorderColor=none;textShadow=0;" edge="1" parent="WIyWlLk6GJQsqaUBKTNV-1" source="vJLqhC23IlcQEvtVn0m9-30">
          <mxGeometry x="0.3333" y="20" relative="1" as="geometry">
            <mxPoint as="offset" />
            <mxPoint x="662" y="413" as="targetPoint" />
          </mxGeometry>
        </mxCell>
        <mxCell id="vJLqhC23IlcQEvtVn0m9-29" value="Yes" style="edgeStyle=orthogonalEdgeStyle;rounded=0;html=1;jettySize=auto;orthogonalLoop=1;fontSize=11;endArrow=block;endFill=0;endSize=8;strokeWidth=5;shadow=0;labelBackgroundColor=none;fillColor=#dae8fc;strokeColor=#6c8ebf;sketch=1;curveFitting=1;jiggle=2;fontStyle=1;horizontal=1;verticalAlign=middle;labelBorderColor=none;textShadow=0;" edge="1" parent="WIyWlLk6GJQsqaUBKTNV-1" source="vJLqhC23IlcQEvtVn0m9-30" target="vJLqhC23IlcQEvtVn0m9-32">
          <mxGeometry y="10" relative="1" as="geometry">
            <mxPoint as="offset" />
          </mxGeometry>
        </mxCell>
        <mxCell id="vJLqhC23IlcQEvtVn0m9-30" value="&lt;div&gt;&lt;span class=&quot;hljs-keyword&quot;&gt;Is&lt;/span&gt; &lt;span class=&quot;hljs-number&quot;&gt;0&lt;/span&gt; &lt;span class=&quot;hljs-operator&quot;&gt;&amp;lt;=&lt;/span&gt; n&amp;nbsp;&lt;/div&gt;&lt;div&gt;&lt;span class=&quot;hljs-operator&quot;&gt;&amp;lt;=&lt;/span&gt; &lt;span class=&quot;hljs-number&quot;&gt;9&lt;/span&gt;?&amp;nbsp; &amp;nbsp;&amp;nbsp;&lt;br&gt;&lt;/div&gt;" style="rhombus;whiteSpace=wrap;html=1;shadow=0;fontFamily=Helvetica;fontSize=12;align=center;strokeWidth=5;spacing=6;spacingTop=-4;fillColor=#dae8fc;strokeColor=#6c8ebf;sketch=1;curveFitting=1;jiggle=2;fontStyle=1;horizontal=1;verticalAlign=middle;labelBackgroundColor=none;labelBorderColor=none;textShadow=0;" vertex="1" parent="WIyWlLk6GJQsqaUBKTNV-1">
          <mxGeometry x="621" y="281" width="131" height="111" as="geometry" />
        </mxCell>
        <mxCell id="vJLqhC23IlcQEvtVn0m9-31" value="" style="edgeStyle=orthogonalEdgeStyle;rounded=0;orthogonalLoop=1;jettySize=auto;html=1;fillColor=#dae8fc;strokeColor=#6c8ebf;strokeWidth=5;sketch=1;curveFitting=1;jiggle=2;shadow=0;fontStyle=1;horizontal=1;verticalAlign=middle;labelBackgroundColor=none;labelBorderColor=none;textShadow=0;" edge="1" parent="WIyWlLk6GJQsqaUBKTNV-1" source="vJLqhC23IlcQEvtVn0m9-32" target="vJLqhC23IlcQEvtVn0m9-38">
          <mxGeometry relative="1" as="geometry" />
        </mxCell>
        <mxCell id="vJLqhC23IlcQEvtVn0m9-32" value="not a prime number" style="rounded=1;whiteSpace=wrap;html=1;fontSize=12;glass=0;strokeWidth=5;shadow=0;fillColor=#dae8fc;strokeColor=#6c8ebf;sketch=1;curveFitting=1;jiggle=2;fontStyle=1;horizontal=1;verticalAlign=middle;labelBackgroundColor=none;labelBorderColor=none;textShadow=0;" vertex="1" parent="WIyWlLk6GJQsqaUBKTNV-1">
          <mxGeometry x="848" y="316.5" width="120" height="40" as="geometry" />
        </mxCell>
        <mxCell id="vJLqhC23IlcQEvtVn0m9-33" value="" style="endArrow=classic;html=1;rounded=0;exitX=0.5;exitY=1;exitDx=0;exitDy=0;entryX=0.5;entryY=0;entryDx=0;entryDy=0;fillColor=#dae8fc;strokeColor=#6c8ebf;strokeWidth=5;sketch=1;curveFitting=1;jiggle=2;shadow=0;fontStyle=1;horizontal=1;verticalAlign=middle;labelBackgroundColor=none;labelBorderColor=none;textShadow=0;" edge="1" parent="WIyWlLk6GJQsqaUBKTNV-1" source="vJLqhC23IlcQEvtVn0m9-25" target="vJLqhC23IlcQEvtVn0m9-27">
          <mxGeometry width="50" height="50" relative="1" as="geometry">
            <mxPoint x="822" y="303" as="sourcePoint" />
            <mxPoint x="872" y="253" as="targetPoint" />
          </mxGeometry>
        </mxCell>
        <mxCell id="vJLqhC23IlcQEvtVn0m9-34" value="" style="edgeStyle=orthogonalEdgeStyle;rounded=0;orthogonalLoop=1;jettySize=auto;html=1;fillColor=#dae8fc;strokeColor=#6c8ebf;strokeWidth=5;sketch=1;curveFitting=1;jiggle=2;shadow=0;fontStyle=1;horizontal=1;verticalAlign=middle;labelBackgroundColor=none;labelBorderColor=none;textShadow=0;" edge="1" parent="WIyWlLk6GJQsqaUBKTNV-1" source="vJLqhC23IlcQEvtVn0m9-36" target="vJLqhC23IlcQEvtVn0m9-40">
          <mxGeometry relative="1" as="geometry" />
        </mxCell>
        <mxCell id="vJLqhC23IlcQEvtVn0m9-35" value="" style="edgeStyle=orthogonalEdgeStyle;rounded=0;orthogonalLoop=1;jettySize=auto;html=1;fillColor=#dae8fc;strokeColor=#6c8ebf;strokeWidth=5;sketch=1;curveFitting=1;jiggle=2;shadow=0;fontStyle=1;horizontal=1;verticalAlign=middle;labelBackgroundColor=none;labelBorderColor=none;textShadow=0;" edge="1" parent="WIyWlLk6GJQsqaUBKTNV-1" source="vJLqhC23IlcQEvtVn0m9-36" target="vJLqhC23IlcQEvtVn0m9-38">
          <mxGeometry relative="1" as="geometry" />
        </mxCell>
        <mxCell id="vJLqhC23IlcQEvtVn0m9-36" value="&lt;div&gt;&lt;br&gt;&lt;/div&gt;Is this number only&amp;nbsp;&lt;div&gt;divisible&amp;nbsp;&lt;div&gt;by that&amp;nbsp;&lt;/div&gt;&lt;/div&gt;&lt;div&gt;number&lt;/div&gt;" style="rhombus;whiteSpace=wrap;html=1;shadow=0;fontFamily=Helvetica;fontSize=12;align=center;strokeWidth=5;spacing=6;spacingTop=-4;fillColor=#dae8fc;strokeColor=#6c8ebf;sketch=1;curveFitting=1;jiggle=2;fontStyle=1;horizontal=1;verticalAlign=middle;labelBackgroundColor=none;labelBorderColor=none;textShadow=0;" vertex="1" parent="WIyWlLk6GJQsqaUBKTNV-1">
          <mxGeometry x="572" y="413" width="180" height="140" as="geometry" />
        </mxCell>
        <mxCell id="vJLqhC23IlcQEvtVn0m9-37" value="" style="edgeStyle=orthogonalEdgeStyle;rounded=0;orthogonalLoop=1;jettySize=auto;html=1;fillColor=#dae8fc;strokeColor=#6c8ebf;strokeWidth=5;sketch=1;curveFitting=1;jiggle=2;shadow=0;fontStyle=1;horizontal=1;verticalAlign=middle;labelBackgroundColor=none;labelBorderColor=none;textShadow=0;" edge="1" parent="WIyWlLk6GJQsqaUBKTNV-1" source="vJLqhC23IlcQEvtVn0m9-38" target="vJLqhC23IlcQEvtVn0m9-41">
          <mxGeometry relative="1" as="geometry" />
        </mxCell>
        <mxCell id="vJLqhC23IlcQEvtVn0m9-38" value="prime number" style="rounded=1;whiteSpace=wrap;html=1;fontSize=12;glass=0;strokeWidth=5;shadow=0;fillColor=#dae8fc;strokeColor=#6c8ebf;sketch=1;curveFitting=1;jiggle=2;fontStyle=1;horizontal=1;verticalAlign=middle;labelBackgroundColor=none;labelBorderColor=none;textShadow=0;" vertex="1" parent="WIyWlLk6GJQsqaUBKTNV-1">
          <mxGeometry x="850" y="463" width="120" height="40" as="geometry" />
        </mxCell>
        <mxCell id="vJLqhC23IlcQEvtVn0m9-39" value="" style="edgeStyle=orthogonalEdgeStyle;rounded=0;orthogonalLoop=1;jettySize=auto;html=1;fillColor=#dae8fc;strokeColor=#6c8ebf;strokeWidth=5;sketch=1;curveFitting=1;jiggle=2;shadow=0;fontStyle=1;horizontal=1;verticalAlign=middle;labelBackgroundColor=none;labelBorderColor=none;textShadow=0;" edge="1" parent="WIyWlLk6GJQsqaUBKTNV-1" source="vJLqhC23IlcQEvtVn0m9-40" target="vJLqhC23IlcQEvtVn0m9-41">
          <mxGeometry relative="1" as="geometry" />
        </mxCell>
        <mxCell id="vJLqhC23IlcQEvtVn0m9-40" value="not prime" style="rounded=1;whiteSpace=wrap;html=1;fontSize=12;glass=0;strokeWidth=5;shadow=0;fillColor=#dae8fc;strokeColor=#6c8ebf;sketch=1;curveFitting=1;jiggle=2;fontStyle=1;horizontal=1;verticalAlign=middle;labelBackgroundColor=none;labelBorderColor=none;textShadow=0;" vertex="1" parent="WIyWlLk6GJQsqaUBKTNV-1">
          <mxGeometry x="602" y="607" width="120" height="40" as="geometry" />
        </mxCell>
        <mxCell id="vJLqhC23IlcQEvtVn0m9-41" value="End" style="rounded=1;whiteSpace=wrap;html=1;fontSize=12;glass=0;strokeWidth=5;shadow=0;fillColor=#dae8fc;strokeColor=#6c8ebf;sketch=1;curveFitting=1;jiggle=2;fontStyle=1;horizontal=1;verticalAlign=middle;labelBackgroundColor=none;labelBorderColor=none;textShadow=0;" vertex="1" parent="WIyWlLk6GJQsqaUBKTNV-1">
          <mxGeometry x="845.5" y="599" width="131" height="48" as="geometry" />
        </mxCell>
      </root>
    </mxGraphModel>
  </diagram>
</mxfile>
